<?xml version="1.0" encoding="utf-8" ?>
<svg xmlns="http://www.w3.org/2000/svg" xmlns:xlink="http://www.w3.org/1999/xlink" width="30" height="30">
	<path fill="#B3CFA9" transform="scale(0.0292969 0.0292969)" d="M0 0L1024 0L1024 1024L0 1024L0 0Z"/>
	<path fill="#1A1415" transform="scale(0.0292969 0.0292969)" d="M87.1236 307.467C96.9106 307.206 106.746 307.441 116.537 307.473C121.057 307.488 125.956 306.982 130.413 307.537C132.486 307.796 134.296 308.278 135.842 309.718L135.782 310.703C131.22 314.24 119.977 312.637 114.401 312.539L114.432 439.25C114.467 444.103 115.837 455.015 113.007 459.008C112.483 459.746 112.608 459.516 111.612 459.734C111.228 459.515 110.995 459.422 110.703 459.031C109.784 457.806 109.49 455.861 109.4 454.38C109.14 450.126 109.506 445.659 109.506 441.375L109.489 410.6L109.511 312.469C104.317 312.38 90.3841 314.231 86.6758 311.096C86.1937 309.42 86.5341 309.062 87.1236 307.467Z"/>
	<path fill="#1A1415" transform="scale(0.0292969 0.0292969)" d="M110.367 568.207C111.745 568.411 112.534 568.42 113.584 569.419C114.861 573.075 114.024 602.186 114.028 607.634L113.962 718.939C119.879 719.041 126.249 718.116 132.097 718.802C133.397 718.955 133.856 719.399 134.674 720.355C134.665 721.101 134.856 721.428 134.269 721.989C131.233 724.894 116.533 723.588 111.842 723.558C105.978 723.544 94.9717 725.104 89.7321 723.208C88.5518 722.781 88.1645 722.463 87.6787 721.331C87.9926 720.455 88.1489 719.892 88.878 719.262C90.3518 717.989 105.68 718.9 108.944 718.953L108.978 617.423L108.992 587.728C108.996 582.428 108.726 576.931 109.171 571.654C109.289 570.256 109.651 569.399 110.367 568.207Z"/>
	<path fill="#1D212E" transform="scale(0.0292969 0.0292969)" d="M74.4047 485.575C80.4738 485.07 85.8885 485.979 90.6988 490.011C93.6796 492.509 95.649 496.03 95.8132 499.951C96.0228 504.955 93.5315 508.591 90.4095 512.174L90.922 512.666C94.499 516.157 97.6276 519.954 97.5747 525.258C97.5316 529.584 95.3693 533.613 92.257 536.53C87.5486 540.943 81.1505 542.942 74.7663 542.74C68.0269 542.526 62.5875 540.04 57.9569 535.238C59.8259 532.539 61.7584 530.169 64.0568 527.824L65.1547 527.791C67.7534 529.635 70.3356 531.13 73.435 531.964C76.3034 532.736 79.9374 533.191 82.5816 531.489C84.4767 530.269 86.2046 527.705 86.4988 525.448C86.7469 523.544 86.3732 521.752 85.0554 520.301C82.5824 517.577 78.3441 517.536 74.9403 517.455C74.3887 515.284 73.5089 512.921 73.8024 510.675C76.1351 508.493 80.3766 508.516 83.1841 506.818C84.4503 506.052 85.5271 504.993 85.6967 503.442C85.8924 501.651 84.7409 499.497 83.5754 498.19C82.1849 496.63 80.4064 495.902 78.3331 495.844C73.1664 495.699 69.6273 498.847 66.1156 502.119C64.4778 500.919 62.4895 499.569 61.4831 497.752Q61.3468 497.508 61.2386 497.25Q61.1305 496.993 61.0518 496.725Q60.9731 496.457 60.9249 496.181Q60.8767 495.906 60.8595 495.627Q60.8424 495.348 60.8565 495.069Q60.8706 494.79 60.9159 494.514Q60.9611 494.239 61.0369 493.97Q61.1126 493.701 61.218 493.442C63.0187 489.084 70.2392 486.848 74.4047 485.575Z"/>
	<path fill="#1D212E" transform="scale(0.0292969 0.0292969)" d="M485.617 51.7559Q497.079 51.5581 508.542 51.7164C508.544 53.3288 508.625 55.1378 508.207 56.7052C506.72 62.2816 499.339 69.0661 495.617 73.414C499.278 74.6308 502.818 76.5164 505.479 79.3568C508.542 82.6268 509.918 86.8116 509.636 91.2645Q509.605 91.7428 509.55 92.2188Q509.495 92.6949 509.416 93.1676Q509.337 93.6403 509.234 94.1084Q509.132 94.5766 509.005 95.0389Q508.879 95.5013 508.73 95.9567Q508.581 96.4122 508.409 96.8596Q508.237 97.3069 508.043 97.7451Q507.849 98.1832 507.633 98.611Q507.417 99.0388 507.18 99.4553Q506.942 99.8717 506.684 100.276Q506.427 100.68 506.149 101.07Q505.871 101.46 505.574 101.836Q505.276 102.212 504.961 102.573Q504.645 102.934 504.312 103.278Q503.978 103.622 503.628 103.949Q503.277 104.276 502.911 104.585C498.191 108.562 491.642 109.961 485.604 109.196C479.542 108.428 475.19 105.542 471.464 100.842L478.076 93.9978C480.509 96.3993 482.358 98.2068 485.792 99.074C488.855 99.8477 492.511 99.876 495.226 98.0364C496.871 96.922 497.804 95.0336 498.133 93.1165C498.551 90.68 498.386 87.4487 496.798 85.4181C493.104 80.6936 487.979 83.8483 483.512 82.8454C483.249 82.7862 480.54 77.2894 480.072 76.5146C484.381 71.3409 489.909 66.4143 493.004 60.4137Q483.236 60.5272 473.472 60.8206L473.436 51.9561L485.617 51.7559Z"/>
	<path fill="#1D212E" transform="scale(0.0292969 0.0292969)" d="M538.538 50.6237C543.226 50.2068 547.831 50.9187 551.887 53.4349C557.031 56.6261 559.95 61.8563 561.234 67.6505C563.457 77.678 563.155 91.9168 557.224 100.688C554.11 105.293 550.126 107.62 544.75 108.672C539.616 109.17 534.781 108.664 530.381 105.772C525.152 102.335 522.337 96.5674 521.017 90.6208C518.968 81.3919 518.826 67.1533 524.277 59.0639C527.852 53.7589 532.497 51.75 538.538 50.6237Z"/>
	<path fill="#B3CFA9" transform="scale(0.0292969 0.0292969)" d="M538.967 59.9968C540.443 59.8832 542.129 59.7567 543.545 60.2682C546 61.1548 547.656 63.6347 548.582 65.9568C551.141 72.3808 551.024 88.2599 548.134 94.4949C546.922 97.1082 545.499 97.9997 542.86 98.977C541.764 99.0343 540.574 99.131 539.487 98.9212C537.209 98.4812 535.529 96.4077 534.482 94.4879C530.922 87.9627 531.041 73.885 533.27 66.8401C534.367 63.3719 535.739 61.641 538.967 59.9968Z"/>
	<path fill="#1D212E" transform="scale(0.0292969 0.0292969)" d="M126.812 485.153C131.239 484.931 135.774 486.721 139.213 489.434C145.631 494.496 149.047 502.765 149.938 510.718C150.901 519.326 148.844 528.403 143.27 535.187C139.161 540.187 134.403 542.268 128.122 542.852C123.697 543.238 118.964 541.521 115.444 538.9C109.482 534.459 105.661 526.254 104.684 518.963C103.512 510.21 106.648 500.087 112.121 493.174C116.058 488.201 120.655 485.938 126.812 485.153Z"/>
	<path fill="#B3CFA9" transform="scale(0.0292969 0.0292969)" d="M125.666 495.474C126.778 495.519 127.925 495.603 129.005 495.895C132.294 496.785 134.923 499.658 136.437 502.591C139.615 508.745 139.907 517.507 137.612 524.017C136.016 528.543 133.648 531.235 129.369 533.323C128.417 533.217 127.438 533.112 126.509 532.868C123.125 531.979 120.377 529.095 118.766 526.104C115.46 519.968 115.082 511.246 117.379 504.681C119.006 500.03 121.273 497.541 125.666 495.474Z"/>
	<path fill="#1D212E" transform="scale(0.0292969 0.0292969)" d="M501.391 124.711C524.117 122.424 547.953 127.405 568.67 136.751C590.937 146.797 610.949 163.116 631.037 176.891L720.096 237.674L778.02 277.287C787.774 283.867 798.311 289.77 807.464 297.163C833.358 318.075 851.853 349.145 855.351 382.493C856.818 396.479 855.892 411.089 855.896 425.171L855.86 504.888L855.853 603.424C855.805 623.969 857.314 645.529 853.419 665.741C849.417 686.505 839.695 706.063 826.435 722.456Q821.595 728.453 816.062 733.816Q810.529 739.18 804.384 743.83C791.129 753.713 776.464 761.892 762.769 771.182L652.662 845.445L598.481 882.417C588.921 888.981 579.421 896.473 569.164 901.89Q566.545 903.261 563.864 904.504Q561.182 905.747 558.443 906.858Q555.704 907.97 552.915 908.947Q550.125 909.925 547.292 910.766Q544.458 911.607 541.587 912.31Q538.716 913.013 535.814 913.576Q532.913 914.139 529.987 914.561Q527.062 914.983 524.119 915.263C524.001 915.292 523.885 915.332 523.766 915.35C503.893 918.307 480.435 913.953 462.278 905.731C445.251 898.02 422.763 880.662 406.825 869.771Q355.422 834.93 304.432 799.488Q275.572 779.858 246.46 760.603C236.19 753.677 225.608 747.129 216.055 739.218C192.023 719.316 173.968 687.918 171.214 656.603C169.836 640.923 170.895 624.549 170.91 608.794L170.973 517.076L170.933 429C170.903 409.412 169.316 388.475 172.921 369.198C176.499 350.063 186.14 331.28 198.598 316.429Q203.076 311.102 208.102 306.287Q213.127 301.472 218.641 297.226C227.393 290.523 237.019 284.851 246.062 278.531L340.964 213.4C366.672 195.558 392.172 177.48 418.096 159.952C428.243 153.091 437.7 145.253 448.603 139.575Q451.676 138.006 454.823 136.59Q457.97 135.174 461.183 133.916Q464.396 132.657 467.667 131.559Q470.939 130.461 474.26 129.526Q477.582 128.59 480.945 127.82Q484.309 127.05 487.706 126.447Q491.104 125.844 494.527 125.41Q497.951 124.976 501.391 124.711Z"/>
	<path fill="#F17625" transform="scale(0.0292969 0.0292969)" d="M504.287 146.702C504.49 146.661 504.691 146.605 504.897 146.579C523.882 144.183 544.953 149.903 561.92 158.112C572.651 163.304 582.193 170.847 592.086 177.444C616.901 193.99 641.209 211.312 665.747 228.265L757.389 291.237C769.192 299.457 781.677 307.136 792.982 316.005C813.81 332.346 828.231 357.111 831.326 383.505C832.337 392.119 832.082 400.839 832.075 409.497L832.038 444.816L831.77 564.748L831.718 621.429C831.721 633.093 832.559 645.462 830.593 656.977C827.546 674.823 819.217 692.891 807.887 707.012Q803.998 711.85 799.563 716.195Q795.129 720.539 790.211 724.327C781.441 731.09 772.016 737.229 762.863 743.468Q739.134 759.774 715 775.473C705.865 781.46 697.147 788.02 688.126 794.168C677.772 801.223 667.148 807.894 656.774 814.929C639.567 826.599 622.424 838.574 605.443 850.569C590.168 861.36 574.872 872.678 558.39 881.574C547.119 887.658 535.163 890.986 522.485 892.429C505.585 893.503 488.58 891.818 472.962 884.893C457.711 878.132 443.592 866.774 429.809 857.4L363.29 812.225L275.935 752.822C261.482 742.932 246.284 733.543 232.627 722.599C212.576 706.532 197.877 682.185 195.143 656.408C193.391 639.889 194.566 620.23 194.554 603.394L194.527 500.098L194.552 421.58C194.546 406.799 193.178 390.643 195.652 376.076C198.381 360.006 206.3 343.664 216.574 331.045C221.4 325.118 226.875 320.014 232.924 315.354C246.54 304.865 261.337 295.614 275.41 285.729Q324.716 250.856 374.591 216.799Q397.913 200.87 421.031 184.645C433.381 175.947 445.62 166.421 459.002 159.37C473.085 151.948 488.53 148.307 504.287 146.702Z"/>
	<path fill="#1A1415" transform="scale(0.0292969 0.0292969)" d="M502.387 204.197C510.549 203.104 519.739 203.754 527.734 205.675C543.178 209.384 558.547 218.374 566.893 232.287C575.668 246.915 571.097 264.54 567.307 280.056C586.903 284.683 606.287 292.983 623.597 303.28Q627.496 305.622 631.293 308.126Q635.09 310.63 638.779 313.29Q642.468 315.951 646.042 318.763Q649.616 321.576 653.07 324.536Q656.523 327.496 659.849 330.598Q663.175 333.7 666.368 336.939Q669.562 340.178 672.616 343.548Q675.671 346.917 678.582 350.412C706.4 383.578 720.271 415.989 730.862 457.794C740.842 458.814 749.978 460.349 759.252 464.342C776.306 471.685 791.503 485.048 798.314 502.636C803.65 516.415 805.132 532.631 798.877 546.367C793.987 557.107 784.335 565.031 773.375 569.051C758.53 574.496 742.697 571.54 728.665 565.13C734.546 599.381 742.505 629.935 759.132 660.799C763.687 669.254 770.198 676.618 774.57 685.119L774.881 685.732C770.246 694.565 748.574 709.638 740.065 716.173Q675.253 766.025 606.745 810.662L538.52 855.585C531.204 860.452 523.72 865.053 516.526 870.104C514.778 871.321 512.863 872.257 510.982 873.249C502.065 868.042 492.344 860.68 483.507 854.82C457.188 837.367 431.314 819.352 405.251 801.53C364.271 773.507 323.049 746.07 283.532 715.976C270.35 705.938 257.154 696.191 244.713 685.215C260.794 664.483 277.55 632.182 283.985 606.906Q286.51 597.026 288.314 586.989C289.302 581.354 289.95 575.589 291.324 570.034L291.478 569.433Q287.727 571.005 283.802 572.072Q279.878 573.138 275.847 573.681C262.265 575.41 247.815 571.148 237.083 562.704C226.94 554.724 219.015 541.769 217.633 528.841C215.928 512.89 221.168 498.233 231.225 485.885C246.556 467.061 268.659 459.012 292.126 456.602C294.694 448.043 296.149 439.141 298.691 430.558Q301.224 422.181 304.334 414.001Q307.445 405.82 311.118 397.877Q314.792 389.934 319.01 382.266Q323.228 374.598 327.971 367.243Q329.29 365.194 330.658 363.177Q332.026 361.161 333.443 359.178Q334.86 357.196 336.325 355.249Q337.79 353.301 339.302 351.391Q340.814 349.48 342.372 347.606Q343.93 345.733 345.534 343.898Q347.137 342.063 348.785 340.268Q350.433 338.473 352.124 336.718Q353.815 334.964 355.549 333.251Q357.282 331.539 359.057 329.869Q360.831 328.199 362.646 326.573Q364.461 324.947 366.315 323.366Q368.17 321.785 370.062 320.249Q371.954 318.714 373.883 317.225Q375.812 315.736 377.777 314.295Q379.742 312.853 381.741 311.46Q383.741 310.067 385.773 308.724Q387.806 307.38 389.871 306.086Q391.936 304.793 394.032 303.55Q396.128 302.307 398.254 301.115Q400.38 299.924 402.534 298.785Q404.688 297.646 406.869 296.559Q409.05 295.473 411.258 294.441Q413.465 293.408 415.696 292.429Q417.928 291.451 420.183 290.527Q422.438 289.603 424.715 288.735Q426.992 287.867 429.289 287.054Q431.586 286.242 433.903 285.485Q436.219 284.729 438.553 284.029Q440.888 283.33 443.238 282.688Q445.589 282.045 447.954 281.461Q450.32 280.876 452.699 280.349C450.959 273.402 449.457 266.137 448.594 259.029C447.099 246.71 449.488 236.619 457.284 226.795C468.287 212.929 485.256 206.174 502.387 204.197Z"/>
	<path fill="#FDF9F1" transform="scale(0.0292969 0.0292969)" d="M230.767 536.11C230.316 534.861 229.892 533.602 229.6 532.305C227.02 520.828 229.47 509.098 235.779 499.217C246.046 483.137 264.017 472.889 282.349 468.926C299.798 465.154 319.032 465.729 334.443 475.575C334.284 475.581 334.124 475.591 333.965 475.593C327.284 475.694 320.54 472.636 313.805 472.164C289.866 470.486 262.424 478.699 245.341 495.954C237.931 503.438 232.712 513.05 231.734 523.644C231.359 527.704 231.614 532.147 230.767 536.11Z"/>
	<path fill="#FDF9F1" transform="scale(0.0292969 0.0292969)" d="M304.953 544.88C306.929 551.427 306.63 559.868 306.518 566.717C305.977 600.012 298.162 627.758 282.462 656.993Q279.404 662.681 276.087 668.223C272.13 674.362 268.374 681.29 263.867 687.012L259.944 683.364C291.696 635.086 299.934 601.704 304.953 544.88Z"/>
	<path fill="#FDF9F1" transform="scale(0.0292969 0.0292969)" d="M712.643 552.969C714.297 554.252 715.99 555.5 717.537 556.913C719.348 567.033 720.242 577.314 722.168 587.41C726.874 612.076 734.965 636.544 747.016 658.626C751.779 667.355 757.308 675.7 762.664 684.072L759.054 686.877C753.365 681.1 748.75 672.517 744.425 665.599C741.275 658.99 737.302 652.819 734.315 646.098C724.171 623.275 718.16 599.722 714.757 575.036C713.757 567.777 712.676 560.304 712.643 552.969Z"/>
	<path fill="#FDF9F1" transform="scale(0.0292969 0.0292969)" d="M672.348 474.102C678.977 472.173 685.695 469.982 692.457 468.605C715.572 463.898 740.376 465.852 761.246 477.366C775.016 484.963 785.953 496.999 790.322 512.311C792.688 520.605 792.796 528.391 791.292 536.836C790.297 536.655 790.385 526.248 790.217 524.284C789.498 515.882 785.034 507.03 779.84 500.509C761.02 476.885 726.858 471.187 698.271 472.512C691.941 472.806 678.561 474.978 673.249 474.243C672.948 474.201 672.648 474.149 672.348 474.102Z"/>
	<path fill="#088787" transform="scale(0.0292969 0.0292969)" d="M728.978 525.221C729.139 525.435 729.304 525.646 729.461 525.863C731.181 528.245 731.662 531.669 733.003 534.309C736.727 541.641 746.827 547.649 754.666 549.21C763.535 550.976 774.995 548.69 782.453 543.508C785.005 541.734 786.518 538.34 789.892 538.427L790.804 539.586C789.869 541.38 788.838 543.148 787.771 544.865C782.794 552.868 774.288 558.442 765.149 560.456C750.904 563.594 738.471 558.809 726.516 551.237C726.503 542.337 727.174 533.943 728.978 525.221Z"/>
	<path fill="#088787" transform="scale(0.0292969 0.0292969)" d="M284.411 496.112C294.303 507.487 297.428 530.753 296.358 545.243Q295.995 549.712 295.12 554.109C285.768 560.919 274.731 564.236 263.18 562.352C251.627 560.468 241.578 553.117 234.935 543.647C233.742 541.946 232.663 540.302 231.866 538.374C234.671 539.727 237.428 543.755 240.262 545.691C245.792 549.466 255.318 551.196 261.796 549.787C269.771 548.054 276.953 542.68 281.332 535.858C289.673 522.863 287.496 510.195 284.411 496.112Z"/>
	<path fill="#FDF9F1" transform="scale(0.0292969 0.0292969)" d="M308.274 456.785C307.044 456.516 305.881 456.168 304.682 455.788C304.648 455.636 304.6 455.486 304.579 455.332C304.137 452 305.945 447.033 306.8 443.709Q307.953 439.197 309.287 434.734Q310.621 430.272 312.133 425.867Q313.645 421.462 315.334 417.122Q317.022 412.781 318.884 408.512Q320.746 404.243 322.778 400.053Q324.81 395.862 327.009 391.757Q329.208 387.651 331.571 383.638Q333.934 379.624 336.456 375.709C363.258 333.488 407.666 301.091 456.654 290.142L458.963 297.09C418.775 307.382 387.8 325.299 359.775 356.313C351.042 365.978 342.933 376.195 336.248 387.399C322.378 410.647 315.794 431.079 308.274 456.785Z"/>
	<path fill="#FDF9F1" transform="scale(0.0292969 0.0292969)" d="M563.836 290.246C570.468 292.11 577.241 293.813 583.686 296.26C628.68 313.343 668.836 346.559 692.533 388.671Q696.339 395.382 699.745 402.305Q703.152 409.227 706.147 416.337Q709.142 423.447 711.717 430.721Q714.291 437.994 716.435 445.405C717.322 448.5 718.959 452.861 718.732 456.086L718.59 456.335C716.595 456.161 714.55 456.197 712.546 456.147C707.808 440.857 703.594 425.915 696.833 411.349C674.832 363.95 639.853 328.75 592.019 307.659Q582.651 303.481 572.897 300.306C569.296 299.137 565.534 298.286 561.997 296.96L561.106 296.62L563.836 290.246Z"/>
	<path fill="#FDF9F1" transform="scale(0.0292969 0.0292969)" d="M505.281 215.195C510.995 214.439 517.508 215.019 523.148 216.17C536.174 218.829 550.265 226.582 557.64 237.937C563.495 246.95 561.524 256.18 559.326 266.035C552.784 295.375 539.991 323.1 513.768 339.672C512.93 340.197 512.144 340.532 511.214 340.867C507.163 340.333 503.671 337.296 500.501 334.915C475.905 316.44 462.657 284.17 458.649 254.464C457.688 247.343 460.465 240.273 464.827 234.727C474.257 222.741 490.64 216.938 505.281 215.195Z"/>
	<path fill="#13A8BD" transform="scale(0.0292969 0.0292969)" d="M504.812 222.138Q506.928 222.004 509.048 221.938C520.717 221.615 533.208 225.62 541.688 233.853C545.271 237.332 548.225 241.913 548.208 247.055C548.19 252.268 546.95 257.781 546.384 262.997C543.172 292.609 536.351 311.887 514.585 333.131L511.206 336.585C507.291 333.089 503.165 329.822 499.548 326.006C486.971 312.737 479.182 295.56 475.821 277.73C474.369 270.024 471.57 252.182 472.725 244.815C473.17 241.975 474.36 239.371 476.022 237.038C482.704 227.658 494.04 224.165 504.812 222.138Z"/>
	<path fill="#088787" transform="scale(0.0292969 0.0292969)" d="M744.425 665.599C748.75 672.517 753.365 681.1 759.054 686.877C750.332 695.918 739.201 703.619 729.283 711.338C696.716 736.683 662.729 759.677 628.628 782.875C602.432 800.696 575.994 818.002 549.576 835.483C536.922 843.856 524.575 853.087 511.508 860.779C494.881 851.1 478.994 839.237 463.112 828.339L396.632 783.154C383.435 774.066 369.902 765.508 356.694 756.453C342.352 746.621 328.307 736.266 314.19 726.109C296.97 713.719 279.717 701.139 263.867 687.012C268.374 681.29 272.13 674.362 276.087 668.223C278.684 671.084 281.72 673.555 284.711 675.992C314.711 700.435 346.829 722.861 379.113 744.157C391.079 752.05 402.876 760.305 415.078 767.827C434.387 779.728 463.545 794.539 485.599 800.632C498.157 804.101 511.785 804.631 524.7 803.266C544.054 801.22 562.099 795.162 579.506 786.586C589.129 781.844 598.158 775.43 607.236 769.731Q634.032 752.637 659.845 734.089Q685.657 715.542 710.406 695.599C722.035 686.327 735.021 677.195 744.425 665.599Z"/>
	<path fill="#1A1415" transform="scale(0.0292969 0.0292969)" d="M511.145 812.56C511.851 812.697 512.562 812.823 513.248 813.043C514.798 813.541 516.432 814.677 517.006 816.273C518.142 819.432 518.085 841.679 516.609 843.988C515.416 845.855 513.769 846.395 511.733 846.969C510.843 846.799 509.988 846.58 509.145 846.245C507.768 845.699 506.188 844.559 505.647 843.118C504.403 839.801 504.366 818.806 506.119 815.658C507.095 813.906 509.38 813.147 511.145 812.56Z"/>
	<path fill="#13A8BD" transform="scale(0.0292969 0.0292969)" d="M561.106 296.62L561.997 296.96C565.534 298.286 569.296 299.137 572.897 300.306Q582.651 303.481 592.019 307.659C639.853 328.75 674.832 363.95 696.833 411.349C703.594 425.915 707.808 440.857 712.546 456.147C714.55 456.197 716.595 456.161 718.59 456.335C701.988 456.565 683.958 461.396 671.652 473.204L671.73 473.835L672.348 474.102C672.648 474.149 672.948 474.201 673.249 474.243C678.561 474.978 691.941 472.806 698.271 472.512C726.858 471.187 761.02 476.885 779.84 500.509C785.034 507.03 789.498 515.882 790.217 524.284C790.385 526.248 790.297 536.655 791.292 536.836L790.804 539.586L789.892 538.427C786.518 538.34 785.005 541.734 782.453 543.508C774.995 548.69 763.535 550.976 754.666 549.21C746.827 547.649 736.727 541.641 733.003 534.309C731.662 531.669 731.181 528.245 729.461 525.863C729.304 525.646 729.139 525.435 728.978 525.221Q729.413 523.164 729.974 521.137Q730.534 519.11 731.217 517.121Q731.901 515.132 732.704 513.188Q733.508 511.245 734.429 509.354Q735.35 507.464 736.385 505.633Q737.42 503.802 738.565 502.038Q739.71 500.274 740.961 498.584Q742.211 496.893 743.563 495.282C729.185 503.773 719.88 517.867 715.803 533.975C714.381 539.594 712.611 547.163 712.643 552.969C712.676 560.304 713.757 567.777 714.757 575.036C718.16 599.722 724.171 623.275 734.315 646.098C737.302 652.819 741.275 658.99 744.425 665.599C735.021 677.195 722.035 686.327 710.406 695.599Q685.657 715.542 659.845 734.089Q634.032 752.637 607.236 769.731C598.158 775.43 589.129 781.844 579.506 786.586C562.099 795.162 544.054 801.22 524.7 803.266C511.785 804.631 498.157 804.101 485.599 800.632C463.545 794.539 434.387 779.728 415.078 767.827C402.876 760.305 391.079 752.05 379.113 744.157C346.829 722.861 314.711 700.435 284.711 675.992C281.72 673.555 278.684 671.084 276.087 668.223Q279.404 662.681 282.462 656.993C298.162 627.758 305.977 600.012 306.518 566.717C306.63 559.868 306.929 551.427 304.953 544.88C304.684 538.816 304.245 532.854 302.821 526.936C300.589 517.657 293.411 501.012 285.025 495.862L284.411 496.112C287.496 510.195 289.673 522.863 281.332 535.858C276.953 542.68 269.771 548.054 261.796 549.787C255.318 551.196 245.792 549.466 240.262 545.691C237.428 543.755 234.671 539.727 231.866 538.374L230.767 536.11C231.614 532.147 231.359 527.704 231.734 523.644C232.712 513.05 237.931 503.438 245.341 495.954C262.424 478.699 289.866 470.486 313.805 472.164C320.54 472.636 327.284 475.694 333.965 475.593C334.124 475.591 334.284 475.581 334.443 475.575C335.224 475.388 334.858 475.578 335.495 474.924C335.375 474.345 335.371 474.167 335.054 473.574C332.41 468.625 324.584 462.391 319.619 460.004C316.092 458.308 312.091 457.505 308.274 456.785C315.794 431.079 322.378 410.647 336.248 387.399C342.933 376.195 351.042 365.978 359.775 356.313C387.8 325.299 418.775 307.382 458.963 297.09C468.28 321.788 486.859 343.591 510.775 355.017Q513.932 353.372 517 351.567C533.057 341.908 545.018 328.642 554.195 312.441C557.041 307.416 559.735 302.261 561.106 296.62Z"/>
	<path fill="#1A1415" transform="scale(0.0292969 0.0292969)" d="M508.793 694.939C509.282 694.925 509.771 694.923 510.26 694.937C512.613 695.006 514.559 695.504 516.151 697.344C518.437 699.985 517.769 720.84 517.335 725.254C517.021 728.454 516.328 729.891 513.845 731.928C513.113 731.999 512.382 732.05 511.645 732.056C510.108 732.07 508.547 731.938 507.537 730.583C504.731 726.818 505.586 710.932 505.671 705.934C505.742 701.763 505.6 698.008 508.793 694.939Z"/>
	<path fill="#1A1415" transform="scale(0.0292969 0.0292969)" d="M509.98 750.952C512.14 751.16 514.552 751.755 516.018 753.505C518.989 757.048 518.38 777.871 517.625 782.896C517.219 785.596 516.356 786.784 514.191 788.423C511.541 788.721 509.447 789.149 507.189 787.525C504.781 783.05 505.048 762.615 505.934 757.374C506.475 754.177 507.363 752.834 509.98 750.952Z"/>
	<path fill="#2A150E" transform="scale(0.0292969 0.0292969)" d="M489.721 499.484C493.809 500.585 496.456 504.193 500.33 505.889C509.059 509.71 517.89 504.681 525.79 501.612C528.049 500.735 530.036 500.213 532.332 501.262C533.189 502.126 533.74 502.787 533.968 504.021C534.592 507.401 533.551 509.676 531.623 512.352C530.88 512.97 530.066 513.652 529.208 514.098C527.048 515.222 524.588 513.587 522.29 513.763C519.703 513.961 517.004 515.244 514.462 515.837C509.813 516.921 502.869 516.089 498.211 514.957C493.996 513.933 487.36 511.686 485.14 507.746C484.362 506.364 484.192 504.401 484.784 502.904C485.561 500.943 487.948 500.213 489.721 499.484Z"/>
	<path fill="#1D212E" transform="scale(0.0292969 0.0292969)" d="M631.124 500.456C630.76 500.005 631.047 500.28 630.019 500.012C624.398 503.086 617.038 505.427 610.734 506.482C591.68 509.672 571.172 505.916 555.375 494.551Q554.596 493.991 553.83 493.411Q553.065 492.832 552.314 492.234Q551.563 491.636 550.828 491.019Q550.092 490.403 549.371 489.768Q548.651 489.134 547.947 488.482Q547.242 487.83 546.554 487.161Q545.866 486.491 545.194 485.805Q544.523 485.119 543.869 484.417Q543.214 483.714 542.578 482.996Q541.941 482.278 541.322 481.544Q540.703 480.81 540.103 480.061Q539.503 479.312 538.921 478.549Q538.339 477.785 537.776 477.007Q537.214 476.23 536.67 475.438Q536.127 474.647 535.603 473.843Q535.08 473.038 534.576 472.221Q534.073 471.404 533.589 470.574Q533.106 469.745 532.643 468.904Q532.181 468.063 531.739 467.211Q531.297 466.358 530.877 465.495Q530.456 464.632 530.057 463.759Q529.658 462.886 529.28 462.004Q528.903 461.121 528.548 460.23Q528.192 459.338 527.859 458.438Q527.525 457.538 527.214 456.629Q526.903 455.721 526.615 454.806Q526.326 453.89 526.06 452.968Q525.795 452.045 525.552 451.117Q525.309 450.188 525.089 449.254Q524.869 448.319 524.672 447.38Q524.475 446.44 524.302 445.496Q524.128 444.552 523.978 443.604C520.938 424.389 525.51 400.663 537.121 384.864C548.145 369.864 565.058 359.089 583.528 356.299C602.677 353.406 623.176 357.989 638.751 369.592C656.312 382.675 667.291 401.306 670.399 423.015C673.918 447.593 665.922 469.606 648.513 487.147C645.789 489.892 637.785 495.038 636.309 497.32C636.232 497.438 636.183 497.572 636.12 497.697C634.418 498.081 632.255 498.362 631.305 500.032C631.229 500.165 631.185 500.314 631.124 500.456Z"/>
	<path fill="#FDF9F1" transform="scale(0.0292969 0.0292969)" d="M590.076 363.706C605.43 361.788 623.106 367.555 635.327 376.775Q636.713 377.831 638.044 378.955Q639.376 380.078 640.651 381.266Q641.925 382.454 643.14 383.703Q644.354 384.953 645.505 386.26Q646.656 387.568 647.742 388.931Q648.827 390.294 649.843 391.709Q650.86 393.124 651.805 394.588Q652.751 396.051 653.623 397.56Q654.495 399.068 655.291 400.618Q656.088 402.167 656.807 403.755Q657.525 405.342 658.165 406.962Q658.805 408.583 659.364 410.233Q659.922 411.883 660.399 413.559Q660.876 415.235 661.269 416.932Q661.662 418.63 661.971 420.344Q662.28 422.059 662.504 423.787Q662.742 425.439 662.899 427.1Q663.055 428.761 663.129 430.428Q663.202 432.095 663.193 433.764Q663.184 435.433 663.092 437.099Q663 438.765 662.826 440.425Q662.652 442.084 662.395 443.733Q662.139 445.382 661.801 447.016Q661.463 448.65 661.044 450.266Q660.625 451.881 660.127 453.474Q659.629 455.066 659.052 456.632Q658.476 458.198 657.822 459.734Q657.169 461.269 656.44 462.77Q655.711 464.271 654.908 465.734Q654.106 467.197 653.232 468.619Q652.358 470.04 651.414 471.417Q650.471 472.793 649.46 474.121C638.075 488.956 621.988 497.457 603.617 499.939C586.604 501.042 570.09 497.109 556.751 486.183Q555.4 485.09 554.105 483.932Q552.809 482.774 551.572 481.554Q550.335 480.333 549.16 479.054Q547.985 477.774 546.874 476.437Q545.764 475.101 544.72 473.712Q543.677 472.322 542.703 470.883Q541.729 469.444 540.828 467.959Q539.926 466.473 539.099 464.945Q538.271 463.417 537.52 461.851Q536.769 460.284 536.096 458.682Q535.424 457.08 534.83 455.446Q534.237 453.813 533.725 452.153Q533.214 450.492 532.784 448.809Q532.355 447.125 532.009 445.422Q531.663 443.719 531.401 442.001Q531.14 440.284 530.963 438.555C529.266 420.259 534.126 400.098 546.159 385.882C557.359 372.651 572.941 365.07 590.076 363.706Z"/>
	<path fill="#2A150E" transform="scale(0.0292969 0.0292969)" d="M584.804 393.685C594.048 392.75 604.443 395.691 611.885 401.232C619.987 407.265 625.984 418.225 627.437 428.154C628.98 438.699 625.864 449.541 619.405 457.958C612.209 467.336 602.663 471.974 591.121 473.46C580.99 473.785 571.574 471.364 563.395 465.164Q562.593 464.551 561.822 463.9Q561.052 463.248 560.314 462.559Q559.577 461.871 558.874 461.146Q558.172 460.422 557.506 459.664Q556.84 458.905 556.212 458.115Q555.584 457.325 554.996 456.505Q554.408 455.685 553.862 454.836Q553.315 453.988 552.811 453.114Q552.307 452.24 551.847 451.341Q551.386 450.443 550.971 449.524Q550.556 448.604 550.186 447.665Q549.817 446.726 549.494 445.77Q549.171 444.813 548.896 443.842Q548.621 442.871 548.395 441.888Q548.168 440.905 547.99 439.911Q547.812 438.918 547.684 437.917Q547.572 436.969 547.505 436.017Q547.439 435.064 547.42 434.11Q547.4 433.156 547.426 432.202Q547.453 431.247 547.526 430.296Q547.599 429.344 547.718 428.397Q547.837 427.449 548.002 426.509Q548.167 425.569 548.378 424.638Q548.589 423.707 548.844 422.787Q549.1 421.867 549.4 420.961Q549.7 420.055 550.043 419.164Q550.387 418.274 550.774 417.401Q551.16 416.528 551.589 415.675Q552.017 414.822 552.487 413.991Q552.956 413.16 553.465 412.353Q553.975 411.545 554.523 410.764Q555.071 409.982 555.656 409.228C562.871 400.074 573.39 395.051 584.804 393.685Z"/>
	<path fill="#FDF9F1" transform="scale(0.0292969 0.0292969)" d="M594.631 400.05C598.892 399.764 602.832 400.274 606.51 402.596Q607.279 403.09 607.995 403.658Q608.711 404.226 609.367 404.863Q610.024 405.499 610.613 406.198Q611.203 406.897 611.72 407.65Q612.238 408.404 612.677 409.205Q613.117 410.007 613.476 410.848Q613.834 411.689 614.106 412.561Q614.379 413.434 614.564 414.329C615.602 419.39 614.239 424.831 611.252 429.007C608.104 433.406 604.046 435.432 598.879 436.399C595.077 436.692 590.751 435.706 587.469 433.764Q587.08 433.536 586.704 433.288Q586.328 433.04 585.964 432.773Q585.601 432.507 585.252 432.222Q584.902 431.937 584.568 431.635Q584.233 431.333 583.915 431.015Q583.596 430.696 583.294 430.361Q582.992 430.027 582.707 429.678Q582.422 429.328 582.156 428.965Q581.889 428.601 581.641 428.225Q581.394 427.849 581.165 427.46Q580.937 427.071 580.729 426.672Q580.52 426.272 580.333 425.862Q580.145 425.453 579.978 425.034Q579.811 424.615 579.666 424.189Q579.521 423.762 579.398 423.329Q579.274 422.895 579.173 422.456C578.067 417.669 579.102 412.377 581.756 408.263C584.83 403.499 589.297 401.32 594.631 400.05Z"/>
	<path fill="#1D212E" transform="scale(0.0292969 0.0292969)" d="M415.088 355.684C433.883 354.083 452.703 358.428 467.979 369.827C483.902 381.708 495.041 401.135 497.777 420.746Q497.916 421.721 498.03 422.699Q498.144 423.678 498.234 424.659Q498.324 425.639 498.39 426.622Q498.455 427.605 498.496 428.589Q498.537 429.573 498.554 430.558Q498.571 431.543 498.563 432.528Q498.555 433.513 498.523 434.497Q498.49 435.481 498.434 436.465Q498.377 437.448 498.295 438.43Q498.214 439.411 498.109 440.391Q498.003 441.37 497.873 442.346Q497.743 443.323 497.589 444.295Q497.435 445.268 497.257 446.237Q497.078 447.206 496.876 448.169Q496.674 449.133 496.448 450.092Q496.221 451.051 495.971 452.003Q495.721 452.956 495.448 453.902Q495.174 454.848 494.877 455.788Q494.58 456.727 494.26 457.658Q493.94 458.59 493.597 459.513Q493.253 460.436 492.887 461.35Q492.521 462.265 492.132 463.17Q491.743 464.075 491.332 464.97Q490.921 465.865 490.488 466.749Q490.055 467.634 489.599 468.507Q489.144 469.381 488.668 470.243Q488.191 471.105 487.693 471.954Q487.195 472.804 486.676 473.641Q486.157 474.479 485.618 475.302Q485.078 476.126 484.518 476.937Q483.958 477.747 483.378 478.543Q482.798 479.339 482.199 480.121C470.337 495.531 453.096 504.479 434.02 506.933C413.415 507.768 397.564 504.591 380.704 491.773C364.483 479.441 353.181 462.063 350.398 441.712C347.488 420.426 352.818 400.499 365.822 383.427C378.217 367.154 395.017 358.468 415.088 355.684Z"/>
	<path fill="#FDF9F1" transform="scale(0.0292969 0.0292969)" d="M419.937 363.218Q420.637 363.15 421.34 363.107C437.319 362.156 455.584 368.817 467.458 379.456C481.304 391.862 489.766 410.338 490.706 428.845Q490.796 430.562 490.801 432.282Q490.806 434.001 490.726 435.719Q490.646 437.437 490.482 439.149Q490.317 440.86 490.069 442.562Q489.82 444.264 489.488 445.951Q489.156 447.638 488.741 449.307Q488.326 450.976 487.829 452.622Q487.333 454.268 486.755 455.888Q486.178 457.508 485.522 459.097Q484.865 460.687 484.131 462.242Q483.397 463.797 482.587 465.314Q481.778 466.831 480.894 468.306Q480.01 469.781 479.055 471.211Q478.1 472.641 477.075 474.022Q476.051 475.403 474.959 476.732Q473.868 478.061 472.712 479.334C461.079 492.155 445.553 498.796 428.366 499.582C410.555 499.706 394.543 494.241 380.913 482.668Q379.63 481.558 378.403 480.388Q377.175 479.217 376.007 477.987Q374.838 476.757 373.731 475.472Q372.624 474.187 371.582 472.849Q370.539 471.511 369.563 470.124Q368.587 468.736 367.68 467.303Q366.773 465.87 365.937 464.393Q365.101 462.917 364.339 461.402Q363.576 459.887 362.889 458.336Q362.201 456.786 361.59 455.203Q360.979 453.621 360.447 452.01Q359.914 450.4 359.461 448.765Q359.007 447.131 358.635 445.476Q358.262 443.821 357.971 442.15Q357.679 440.479 357.47 438.796Q357.261 437.112 357.134 435.421Q357.021 433.749 356.989 432.074Q356.957 430.399 357.007 428.725Q357.057 427.05 357.188 425.38Q357.32 423.71 357.532 422.048Q357.744 420.386 358.037 418.737Q358.331 417.087 358.704 415.454Q359.077 413.821 359.529 412.208Q359.981 410.594 360.511 409.005Q361.041 407.416 361.648 405.854Q362.254 404.293 362.936 402.763Q363.619 401.232 364.374 399.737Q365.13 398.242 365.958 396.785Q366.785 395.329 367.683 393.914Q368.581 392.5 369.546 391.13Q370.511 389.761 371.542 388.44Q372.573 387.12 373.667 385.851C385.721 371.994 401.767 364.545 419.937 363.218Z"/>
	<path fill="#2A150E" transform="scale(0.0292969 0.0292969)" d="M433.776 393.71C442.366 393.304 451.128 396.478 458.028 401.445C467.099 407.976 473.106 417.036 474.799 428.152C476.326 438.174 473.571 449.086 467.555 457.243C460.404 466.939 450.299 471.701 438.618 473.384C429.042 474.072 418.691 470.672 411.275 464.616C402.977 457.84 397.528 447.169 396.602 436.518C395.651 425.582 399.224 414.957 406.282 406.586C413.256 398.314 423.205 394.537 433.776 393.71Z"/>
	<path fill="#FDF9F1" transform="scale(0.0292969 0.0292969)" d="M420.529 399.635C424.359 399.466 428.455 400.408 431.787 402.31Q432.206 402.547 432.611 402.805Q433.017 403.063 433.408 403.342Q433.8 403.621 434.177 403.92Q434.553 404.219 434.914 404.537Q435.274 404.855 435.618 405.192Q435.961 405.528 436.287 405.882Q436.613 406.236 436.919 406.606Q437.226 406.977 437.513 407.362Q437.8 407.748 438.067 408.148Q438.333 408.548 438.579 408.962Q438.824 409.375 439.048 409.801Q439.272 410.227 439.473 410.663Q439.674 411.1 439.852 411.547Q440.03 411.993 440.185 412.448Q440.34 412.904 440.471 413.366Q440.601 413.829 440.708 414.298Q440.899 415.186 441.002 416.089Q441.105 416.992 441.119 417.9Q441.133 418.809 441.059 419.714Q440.984 420.62 440.821 421.513Q440.659 422.407 440.409 423.281Q440.16 424.155 439.827 425Q439.493 425.845 439.079 426.653Q438.664 427.462 438.173 428.226C435.057 433.077 430.717 435.352 425.246 436.47C420.852 436.603 417.154 436.066 413.386 433.62C408.946 430.738 405.99 425.99 404.912 420.849C403.923 416.136 404.66 411.188 407.413 407.182C410.619 402.515 415.197 400.674 420.529 399.635Z"/>
	<defs>
		<linearGradient id="gradient_0" gradientUnits="userSpaceOnUse" x1="511.74121" y1="496.55865" x2="508.96729" y2="674.10883">
			<stop offset="0" stop-color="#231815"/>
			<stop offset="1" stop-color="#391816"/>
		</linearGradient>
	</defs>
	<path fill="url(#gradient_0)" transform="scale(0.0292969 0.0292969)" d="M636.12 497.697C645.285 500.918 651.779 508.894 655.908 517.421C658.486 522.742 659.661 528.316 660.634 534.106C656.811 529.175 652.904 524.5 648.477 520.089C640.972 524.896 633.471 528.614 625.211 531.99C621.326 575.396 603.599 624.877 569.347 653.584C551.524 668.522 526.334 677.346 503.066 675.177C476.872 672.735 453.445 659.15 436.809 638.999C417.446 615.543 408.862 587.391 404.166 557.86C402.823 549.417 401.354 540.347 401.481 531.789C391.321 528.083 384.032 523.491 374.55 519.052C370.227 523.318 366.542 527.826 362.998 532.748C363.859 521.139 366.023 515.452 374.887 507.695C378.989 504.106 384.758 500.523 390.467 500.803C391.424 500.85 391.836 500.983 392.609 501.5L392.766 502.453C388.346 505.743 384.668 508.625 381.732 513.417C446.465 548.726 530.33 551.655 600.113 531.144C615.013 526.765 630.164 520.881 643.995 513.807C639.096 509.653 634.195 506.327 631.124 500.456C631.185 500.314 631.229 500.165 631.305 500.032C632.255 498.362 634.418 498.081 636.12 497.697Z"/>
	<path fill="#E14F2E" transform="scale(0.0292969 0.0292969)" d="M531.012 623.657Q532.376 623.522 533.747 623.511C547.316 623.536 560.517 633.226 569.559 642.493Q566.892 645.059 564.033 647.408Q561.174 649.757 558.14 651.875Q555.106 653.993 551.915 655.868Q548.724 657.742 545.397 659.361C525.156 669.036 503.594 669.997 482.518 662.522C472.132 658.319 463.195 653.427 454.607 646.173C459.689 640.98 465.26 636.029 471.335 632.019C477.07 628.233 484.451 625.208 491.402 626.848C499.68 628.801 504.393 636.687 508.588 643.351C510.018 639.747 511.7 636.199 514.042 633.091C518.388 627.326 524.022 624.674 531.012 623.657Z"/>
	<path fill="#FDF9F1" transform="scale(0.0292969 0.0292969)" d="M408.784 534.609C420.758 537.874 432.094 542.39 444.307 545.081C488.358 554.785 539.812 554.523 583.787 544.471C594.978 541.912 605.813 538.149 616.706 534.569C615.895 545.671 613.356 556.578 610.655 567.347L610.546 567.78C609.866 570.399 608.907 571.113 606.59 572.45C601.385 575.453 595.144 577.257 589.425 579.076C549.473 591.784 499.043 592.672 457.966 585.326C443.239 582.692 429.535 577.634 415.193 573.671C412.615 560.661 410.409 547.781 408.784 534.609Z"/>
</svg>
